<svg width="48" height="16" viewBox="0 0 48 16" fill="none" xmlns="http://www.w3.org/2000/svg">
<path d="M13.6925 15.6318C13.7599 15.6398 13.8189 15.6238 13.878 15.5918C13.9286 15.5598 13.9707 15.5037 13.9876 15.4477L15.4716 10.9735C15.539 10.7894 15.3788 10.7254 15.2439 10.8214C13.6925 11.926 11.8206 13.0865 9.94879 13.0865C8.36363 13.0865 7.65537 12.2861 7.65537 10.7894C7.65537 9.78089 7.94205 8.6123 8.20343 7.75588C8.3299 7.32366 8.55756 6.8034 8.68403 6.4032C8.75149 6.21911 8.52383 6.13107 8.39736 6.28314L0.0668337 15.3277C-0.0596419 15.4797 -0.000619663 15.6318 0.19331 15.6318H13.6925ZM28.0179 4.77839C28.0179 8.24412 25.4969 14.063 22.7565 14.063C21.7869 14.063 20.8847 13.3587 20.8847 11.1816C20.8847 7.71586 23.4058 1.89695 26.1461 1.89695C27.1073 1.89695 28.0179 2.60931 28.0179 4.77839ZM4.2321 0.304153C4.16464 0.296149 4.10562 0.312155 4.0466 0.344171C3.99601 0.376187 3.95385 0.432215 3.93699 0.488243L2.41928 4.93047C2.40241 4.96248 2.40242 5.0025 2.41085 5.03452C2.41928 5.06653 2.44457 5.09855 2.46987 5.12256C2.5036 5.14657 2.53732 5.15458 2.57105 5.15458C2.60478 5.15458 2.64693 5.13857 2.67223 5.11456C4.45132 3.85793 6.51709 2.81741 8.3552 2.81741C9.94036 2.81741 10.7751 3.61781 10.7751 5.05853C10.7751 6.011 10.5474 6.95548 10.1933 8.15608C10.0668 8.6123 9.90663 9.0125 9.77172 9.44472C9.75486 9.47673 9.75486 9.51676 9.77172 9.55678C9.78859 9.5968 9.81388 9.62081 9.84761 9.64482C9.88134 9.66083 9.92349 9.66883 9.96565 9.66083C10.0078 9.65282 10.0415 9.62881 10.0668 9.5968L17.3687 0.680341C17.4952 0.528265 17.4699 0.312157 17.2085 0.312157H4.2321V0.304153ZM46.9808 8.37218C47.1748 8.37218 47.2085 8.30815 47.2675 8.18809C47.6216 7.45172 47.9168 6.04302 47.9168 5.05853C47.9168 2.11305 45.9437 0 42.5542 0C38.0011 0 33.7093 3.92196 33.7093 9.38069C33.7093 13.3667 36.5508 16 40.6233 16C44.8223 16 46.8544 13.2706 47.9842 10.6933C48.0517 10.5413 47.8915 10.4212 47.7228 10.5733C46.6604 11.5578 44.8813 12.6543 42.5205 12.6543C39.8054 12.6543 38.1275 11.0935 38.1275 8.6043C38.1275 5.29064 40.5812 1.88894 42.8071 1.88894C43.6756 1.88894 44.1309 2.44122 44.1309 3.17759C44.1309 4.92246 42.3518 6.7954 40.0331 8.05202C39.8729 8.14007 39.8729 8.35618 40.1596 8.35618H46.9808V8.37218ZM32.4361 7.13957C32.4361 3.12156 29.6874 0 25.6571 0C20.3282 0 16.4581 4.47424 16.4581 8.82841C16.4581 12.8464 19.2068 15.968 23.2372 15.968C28.6587 15.968 32.4361 11.4937 32.4361 7.13957Z" fill="#FFD100"/>
</svg>
